<svg xmlns="http://www.w3.org/2000/svg" xmlns:xlink="http://www.w3.org/1999/xlink" width="2245" zoomAndPan="magnify" viewBox="0 0 1683.75 1190.250009" height="1587" preserveAspectRatio="xMidYMid meet" version="1.0"><defs><clipPath id="a73c267fbc"><path d="M 0.40625 0 L 1683.09375 0 L 1683.09375 1189.5 L 0.40625 1189.5 Z M 0.40625 0 " clip-rule="nonzero"/></clipPath><clipPath id="f141da61f3"><path d="M 1357.007812 217.46875 L 1370.28125 217.46875 L 1370.28125 231.042969 L 1357.007812 231.042969 Z M 1357.007812 217.46875 " clip-rule="nonzero"/></clipPath><clipPath id="07e92ac43f"><path d="M 1370.242188 222.234375 C 1370.242188 226.507812 1369.792969 227.632812 1369.117188 228.457031 C 1368.441406 229.28125 1367.542969 230.03125 1366.570312 230.40625 C 1365.59375 230.855469 1364.46875 231.078125 1363.421875 231.003906 C 1362.371094 230.929688 1361.246094 230.554688 1360.347656 230.03125 C 1359.449219 229.503906 1358.550781 228.679688 1358.023438 227.78125 C 1357.5 226.882812 1357.125 225.757812 1357.050781 224.707031 C 1357.050781 223.660156 1357.199219 222.460938 1357.648438 221.484375 C 1358.101562 220.585938 1358.847656 219.613281 1359.671875 218.9375 C 1360.5 218.335938 1361.546875 217.8125 1362.597656 217.664062 C 1363.644531 217.4375 1364.84375 217.511719 1365.820312 217.8125 C 1366.792969 218.113281 1368.59375 219.535156 1368.59375 219.535156 " clip-rule="nonzero"/></clipPath><clipPath id="d6d475e74d"><path d="M 0.40625 0 L 1683.09375 0 L 1683.09375 940 L 0.40625 940 Z M 0.40625 0 " clip-rule="nonzero"/></clipPath></defs><g clip-path="url(#a73c267fbc)"><path fill="#ffffff" d="M 0.40625 0 L 1683.09375 0 L 1683.09375 1189.5 L 0.40625 1189.5 Z M 0.40625 0 " fill-opacity="1" fill-rule="nonzero"/><path fill="#ffffff" d="M 0.40625 0 L 1683.09375 0 L 1683.09375 1189.5 L 0.40625 1189.5 Z M 0.40625 0 " fill-opacity="1" fill-rule="nonzero"/></g><g clip-path="url(#f141da61f3)"><g clip-path="url(#07e92ac43f)"><path fill="#e7191f" d="M 1354.050781 214.664062 L 1373.464844 214.664062 L 1373.464844 234.078125 L 1354.050781 234.078125 Z M 1354.050781 214.664062 " fill-opacity="1" fill-rule="nonzero"/></g></g><g clip-path="url(#d6d475e74d)"><path fill="#df4c73" d="M -16.441406 0.0859375 L 1683.957031 0.0859375 C 1683.957031 310.058594 1683.957031 620.019531 1683.957031 930.003906 C 1668.011719 937.386719 1646.445312 944.347656 1631.589844 935.339844 C 1570.890625 898.503906 1722.394531 656.546875 1645.332031 578.328125 C 1583.539062 515.542969 1453.761719 638.476562 1301.4375 583.664062 C 1136.394531 524.28125 1168.566406 336.730469 1008.390625 272.144531 C 848.042969 207.492188 761.042969 373.355469 575.121094 322.546875 C 373.214844 267.386719 344.105469 35.753906 154.164062 21.476562 C 81.363281 15.992188 20.003906 45.109375 -16.441406 66.769531 C -16.441406 44.492188 -16.441406 22.28125 -16.441406 0.0859375 Z M -16.441406 0.0859375 " fill-opacity="1" fill-rule="nonzero"/></g></svg>